<svg viewBox="0 0 900 1720" xmlns="http://www.w3.org/2000/svg" role="img" font-family="Inter, system-ui, sans-serif">
  <title>Vee Group Diagnostic Tool — Full Architecture</title>
  <desc>Three-part architecture: inductive diagnostic methodology, multi-agent pipeline, and technical deployment on Google Cloud Run.</desc>

  <defs>
    <marker id="arr" viewBox="0 0 10 10" refX="8" refY="5" markerWidth="6" markerHeight="6" orient="auto">
      <path d="M2 2L8 5L2 8" fill="none" stroke="#9CA3AF" stroke-width="1.5" stroke-linecap="round"/>
    </marker>
    <marker id="arr-gold" viewBox="0 0 10 10" refX="8" refY="5" markerWidth="6" markerHeight="6" orient="auto">
      <path d="M2 2L8 5L2 8" fill="none" stroke="#C9A84C" stroke-width="1.5" stroke-linecap="round"/>
    </marker>
    <marker id="arr-blue" viewBox="0 0 10 10" refX="8" refY="5" markerWidth="6" markerHeight="6" orient="auto">
      <path d="M2 2L8 5L2 8" fill="none" stroke="#63B3ED" stroke-width="1.5" stroke-linecap="round"/>
    </marker>
    <pattern id="grid" width="40" height="40" patternUnits="userSpaceOnUse">
      <path d="M40 0L0 0 0 40" fill="none" stroke="rgba(201,168,76,0.03)" stroke-width="1"/>
    </pattern>
  </defs>

  <rect width="900" height="1720" fill="#070C1A"/>
  <rect width="900" height="1720" fill="url(#grid)"/>

  <text x="450" y="36" text-anchor="middle" fill="#C9A84C" font-size="15" font-weight="700" letter-spacing="0.12em">VEE GROUP DIAGNOSTIC SYSTEM — FULL ARCHITECTURE</text>
  <line x1="60" y1="46" x2="840" y2="46" stroke="rgba(201,168,76,0.3)" stroke-width="1"/>

  <!-- PART 1 -->
  <rect x="30" y="60" width="840" height="24" rx="4" fill="rgba(8,80,65,0.4)"/>
  <text x="450" y="77" text-anchor="middle" fill="#9FE1CB" font-size="10" font-weight="700" letter-spacing="0.14em">PART 1 — INTELLECTUAL FOUNDATION: INDUCTIVE DIAGNOSTIC METHODOLOGY</text>

  <text x="450" y="105" text-anchor="middle" fill="#6B7A99" font-size="9" letter-spacing="0.05em">standard consulting (deductive) — WRONG direction</text>
  <text x="175" y="105" fill="#6B7A99" font-size="9">Framework</text>
  <line x1="225" y1="100" x2="270" y2="100" stroke="#4A5568" stroke-width="1" marker-end="url(#arr)"/>
  <text x="280" y="105" fill="#6B7A99" font-size="9">Business</text>
  <line x1="325" y1="100" x2="370" y2="100" stroke="#4A5568" stroke-width="1" marker-end="url(#arr)"/>
  <text x="380" y="105" fill="#6B7A99" font-size="9">Gap report</text>
  <text x="660" y="105" fill="#E57373" font-size="9">→ always finds deficiency</text>
  <line x1="90" y1="111" x2="810" y2="111" stroke="rgba(255,255,255,0.06)" stroke-width="1" stroke-dasharray="4,4"/>
  <text x="450" y="126" text-anchor="middle" fill="#9FE1CB" font-size="9" letter-spacing="0.05em">Vee Group approach (inductive) — start from what's real, classify upward</text>

  <rect x="50" y="136" width="800" height="70" rx="8" fill="#085041" stroke="#5DCAA5" stroke-width="0.8"/>
  <text x="70" y="158" fill="#9FE1CB" font-size="12" font-weight="600">Layer 1 — Performance evidence</text>
  <text x="70" y="175" fill="#5DCAA5" font-size="10">What is actually working in this business right now, measured in outcomes?</text>
  <text x="70" y="191" fill="#5DCAA5" font-size="10">Revenue source · customer retention · referral rate · team stability · margin · cash position</text>
  <text x="820" y="158" text-anchor="end" fill="#6B7A99" font-size="9">evidence first</text>
  <line x1="450" y1="206" x2="450" y2="224" stroke="#9CA3AF" stroke-width="1.5" marker-end="url(#arr)"/>

  <rect x="50" y="224" width="800" height="70" rx="8" fill="#0C447C" stroke="#85B7EB" stroke-width="0.8"/>
  <text x="70" y="246" fill="#B5D4F4" font-size="12" font-weight="600">Layer 2 — Behaviour archaeology</text>
  <text x="70" y="263" fill="#85B7EB" font-size="10">What decisions and behaviours are producing those outcomes?</text>
  <text x="70" y="279" fill="#85B7EB" font-size="10">What does this business do routinely that competitors don't? What emerged without anyone designing it?</text>
  <text x="820" y="246" text-anchor="end" fill="#6B7A99" font-size="9">reverse-engineered</text>
  <line x1="450" y1="294" x2="450" y2="310" stroke="#9CA3AF" stroke-width="1.5" marker-end="url(#arr)"/>

  <text x="450" y="326" text-anchor="middle" fill="#C2C0B6" font-size="10">does this behaviour match a known pattern?</text>
  <line x1="295" y1="332" x2="225" y2="350" stroke="#9CA3AF" stroke-width="1.5" marker-end="url(#arr)"/>
  <line x1="605" y1="332" x2="670" y2="350" stroke="#9CA3AF" stroke-width="1.5" marker-end="url(#arr)"/>
  <text x="225" y="346" text-anchor="middle" fill="#C2C0B6" font-size="9">YES</text>
  <text x="670" y="346" text-anchor="middle" fill="#C2C0B6" font-size="9">NO</text>

  <rect x="50" y="354" width="340" height="76" rx="8" fill="#3C3489" stroke="#AFA9EC" stroke-width="0.8"/>
  <text x="220" y="378" text-anchor="middle" fill="#CECBF6" font-size="12" font-weight="600">Pattern matched</text>
  <text x="220" y="396" text-anchor="middle" fill="#AFA9EC" font-size="10">Name it. Assess maturity.</text>
  <text x="220" y="412" text-anchor="middle" fill="#AFA9EC" font-size="10">Stage 1/2/3. Flag if fragile.</text>

  <rect x="510" y="354" width="340" height="76" rx="8" fill="#633806" stroke="#EF9F27" stroke-width="0.8"/>
  <text x="680" y="378" text-anchor="middle" fill="#FAC775" font-size="12" font-weight="600">Novel strength identified</text>
  <text x="680" y="396" text-anchor="middle" fill="#EF9F27" font-size="10">No pattern name. Document it.</text>
  <text x="680" y="412" text-anchor="middle" fill="#EF9F27" font-size="10">Often the most defensible asset.</text>

  <line x1="220" y1="430" x2="220" y2="452" stroke="#9CA3AF" stroke-width="1.5"/>
  <line x1="680" y1="430" x2="680" y2="452" stroke="#9CA3AF" stroke-width="1.5"/>
  <line x1="220" y1="452" x2="450" y2="468" stroke="rgba(222,220,209,0.25)" stroke-width="1"/>
  <line x1="680" y1="452" x2="450" y2="468" stroke="rgba(222,220,209,0.25)" stroke-width="1"/>

  <rect x="50" y="468" width="800" height="70" rx="8" fill="#712B13" stroke="#F0997B" stroke-width="0.8"/>
  <text x="70" y="490" fill="#F5C4B3" font-size="12" font-weight="600">Layer 4 — Scalability assessment</text>
  <text x="70" y="507" fill="#F0997B" font-size="10">For each strength: can it survive 3× growth? Is it person-dependent or system-dependent?</text>
  <text x="70" y="523" fill="#F0997B" font-size="10">Stage 1 (founder-carries-it) · Stage 2 (team-carries-it) · Stage 3 (system-carries-it)</text>
  <line x1="450" y1="538" x2="450" y2="556" stroke="#9CA3AF" stroke-width="1.5" marker-end="url(#arr)"/>

  <rect x="50" y="556" width="800" height="70" rx="8" fill="#27500A" stroke="#97C459" stroke-width="0.8"/>
  <text x="70" y="578" fill="#C0DD97" font-size="12" font-weight="600">Layer 5 — Preservation + amplification mandate</text>
  <text x="70" y="595" fill="#97C459" font-size="10">What is the explicit "do not touch" list? What strength, if doubled down on, produces disproportionate results?</text>
  <text x="70" y="611" fill="#97C459" font-size="10">Where is the asymmetric amplification opportunity?</text>
  <text x="450" y="643" text-anchor="middle" fill="#6B7A99" font-size="9">Patterns enter only at Layer 3 — as a classification lens, not a starting point</text>

  <!-- PART 2 -->
  <line x1="60" y1="656" x2="840" y2="656" stroke="rgba(201,168,76,0.15)" stroke-width="1"/>
  <rect x="30" y="662" width="840" height="24" rx="4" fill="rgba(12,68,124,0.5)"/>
  <text x="450" y="679" text-anchor="middle" fill="#B5D4F4" font-size="10" font-weight="700" letter-spacing="0.14em">PART 2 — MULTI-AGENT PIPELINE</text>

  <rect x="280" y="696" width="340" height="44" rx="8" fill="#111A2E" stroke="rgba(201,168,76,0.4)" stroke-width="1.5"/>
  <text x="450" y="713" text-anchor="middle" fill="#C9A84C" font-size="10" font-weight="700" letter-spacing="0.06em">INPUT LAYER</text>
  <text x="450" y="730" text-anchor="middle" fill="#8896B3" font-size="9">Company submits profile · industry · stage</text>
  <line x1="450" y1="740" x2="450" y2="756" stroke="#9CA3AF" stroke-width="1.5" marker-end="url(#arr)"/>
  <text x="140" y="752" fill="#6B7A99" font-size="9">Intake</text>
  <line x1="30" y1="748" x2="270" y2="748" stroke="rgba(255,255,255,0.06)" stroke-width="1"/>

  <rect x="130" y="758" width="640" height="50" rx="8" fill="#1E1B4B" stroke="#AFA9EC" stroke-width="1"/>
  <text x="450" y="778" text-anchor="middle" fill="#CECBF6" font-size="11" font-weight="600">Agent 1 — Pattern Matcher</text>
  <text x="450" y="795" text-anchor="middle" fill="#AFA9EC" font-size="9">Searches 1,982 failure cases · sector keyword scoring · returns top 120–180 ranked matches</text>
  <line x1="450" y1="808" x2="450" y2="824" stroke="#9CA3AF" stroke-width="1.5" marker-end="url(#arr)"/>

  <rect x="130" y="826" width="640" height="50" rx="8" fill="#1E1B4B" stroke="#AFA9EC" stroke-width="1"/>
  <text x="450" y="846" text-anchor="middle" fill="#CECBF6" font-size="11" font-weight="600">Agent 2 — Diagnostic Engine</text>
  <text x="450" y="863" text-anchor="middle" fill="#AFA9EC" font-size="9">Runs contrast framework · scores severity 0–100 · selects Ghost Match · maps risk dimensions</text>
  <line x1="450" y1="876" x2="450" y2="892" stroke="#9CA3AF" stroke-width="1.5" marker-end="url(#arr)"/>
  <text x="140" y="888" fill="#6B7A99" font-size="9">Parallel analysis</text>
  <line x1="30" y1="884" x2="120" y2="884" stroke="rgba(255,255,255,0.06)" stroke-width="1"/>

  <line x1="320" y1="892" x2="190" y2="908" stroke="#9CA3AF" stroke-width="1.5" marker-end="url(#arr)"/>
  <line x1="450" y1="892" x2="450" y2="908" stroke="#9CA3AF" stroke-width="1.5" marker-end="url(#arr)"/>
  <line x1="580" y1="892" x2="710" y2="908" stroke="#9CA3AF" stroke-width="1.5" marker-end="url(#arr)"/>

  <rect x="60" y="908" width="240" height="66" rx="8" fill="#0A3830" stroke="#5DCAA5" stroke-width="1"/>
  <text x="180" y="928" text-anchor="middle" fill="#9FE1CB" font-size="10" font-weight="600">Agent 3 — Behaviour</text>
  <text x="180" y="944" text-anchor="middle" fill="#5DCAA5" font-size="9">Founder psychology</text>
  <text x="180" y="958" text-anchor="middle" fill="#5DCAA5" font-size="9">Goals · vision · blindspots</text>

  <rect x="330" y="908" width="240" height="66" rx="8" fill="#0A3830" stroke="#5DCAA5" stroke-width="1"/>
  <text x="450" y="928" text-anchor="middle" fill="#9FE1CB" font-size="10" font-weight="600">Agent 4 — Culture</text>
  <text x="450" y="944" text-anchor="middle" fill="#5DCAA5" font-size="9">Team dynamics</text>
  <text x="450" y="958" text-anchor="middle" fill="#5DCAA5" font-size="9">Market fit · values</text>

  <rect x="600" y="908" width="240" height="66" rx="8" fill="#0A3830" stroke="#5DCAA5" stroke-width="1"/>
  <text x="720" y="928" text-anchor="middle" fill="#9FE1CB" font-size="10" font-weight="600">Agent 5 — Finance</text>
  <text x="720" y="944" text-anchor="middle" fill="#5DCAA5" font-size="9">EBITDA · runway</text>
  <text x="720" y="958" text-anchor="middle" fill="#5DCAA5" font-size="9">Unit econ · CAC · LTV</text>

  <line x1="180" y1="974" x2="180" y2="990" stroke="#9CA3AF" stroke-width="1"/>
  <line x1="450" y1="974" x2="450" y2="990" stroke="#9CA3AF" stroke-width="1"/>
  <line x1="720" y1="974" x2="720" y2="990" stroke="#9CA3AF" stroke-width="1"/>
  <line x1="180" y1="990" x2="450" y2="1006" stroke="rgba(222,220,209,0.2)" stroke-width="1"/>
  <line x1="720" y1="990" x2="450" y2="1006" stroke="rgba(222,220,209,0.2)" stroke-width="1"/>
  <line x1="450" y1="990" x2="450" y2="1006" stroke="#9CA3AF" stroke-width="1"/>
  <text x="140" y="998" fill="#6B7A99" font-size="9">Synthesis</text>
  <line x1="30" y1="994" x2="120" y2="994" stroke="rgba(255,255,255,0.06)" stroke-width="1"/>

  <rect x="130" y="1006" width="640" height="50" rx="8" fill="#2D1A0A" stroke="#F0997B" stroke-width="1"/>
  <text x="450" y="1026" text-anchor="middle" fill="#F5C4B3" font-size="11" font-weight="600">Agent 6 — Vee Group Matchmaker</text>
  <text x="450" y="1043" text-anchor="middle" fill="#F0997B" font-size="9">Maps all findings to Vee services · builds personalised intervention plan · ranks priorities</text>
  <line x1="450" y1="1056" x2="450" y2="1072" stroke="#9CA3AF" stroke-width="1.5" marker-end="url(#arr)"/>
  <text x="140" y="1068" fill="#6B7A99" font-size="9">Output</text>
  <line x1="30" y1="1064" x2="120" y2="1064" stroke="rgba(255,255,255,0.06)" stroke-width="1"/>

  <rect x="130" y="1072" width="640" height="50" rx="8" fill="#2D1A0A" stroke="#F0997B" stroke-width="1"/>
  <text x="450" y="1092" text-anchor="middle" fill="#F5C4B3" font-size="11" font-weight="600">Agent 7 — Report Generator</text>
  <text x="450" y="1109" text-anchor="middle" fill="#F0997B" font-size="9">Client diagnostic report · Vee expert brief · survival probability · Day 1–7 execution plan</text>

  <line x1="330" y1="1122" x2="240" y2="1138" stroke="#9CA3AF" stroke-width="1.5" marker-end="url(#arr)"/>
  <line x1="570" y1="1122" x2="660" y2="1138" stroke="#9CA3AF" stroke-width="1.5" marker-end="url(#arr)"/>

  <rect x="80" y="1138" width="280" height="42" rx="6" fill="#111A2E" stroke="rgba(201,168,76,0.3)" stroke-width="1"/>
  <text x="220" y="1157" text-anchor="middle" fill="#C9A84C" font-size="10" font-weight="600">Client Diagnostic Report</text>
  <text x="220" y="1172" text-anchor="middle" fill="#8896B3" font-size="9">Rendered in browser</text>

  <rect x="540" y="1138" width="280" height="42" rx="6" fill="#111A2E" stroke="rgba(201,168,76,0.3)" stroke-width="1"/>
  <text x="680" y="1157" text-anchor="middle" fill="#C9A84C" font-size="10" font-weight="600">Vee Expert Brief</text>
  <text x="680" y="1172" text-anchor="middle" fill="#8896B3" font-size="9">Internal consultant notes</text>

  <text x="140" y="1196" fill="#6B7A99" font-size="9">Intelligence layer</text>
  <line x1="30" y1="1192" x2="120" y2="1192" stroke="rgba(255,255,255,0.06)" stroke-width="1"/>
  <line x1="220" y1="1180" x2="220" y2="1204" stroke="#9CA3AF" stroke-width="1"/>
  <line x1="680" y1="1180" x2="680" y2="1204" stroke="#9CA3AF" stroke-width="1"/>

  <rect x="60" y="1204" width="280" height="58" rx="8" fill="#1B3A12" stroke="#97C459" stroke-width="1"/>
  <text x="200" y="1224" text-anchor="middle" fill="#C0DD97" font-size="10" font-weight="600">Agent 8 — Learning Engine</text>
  <text x="200" y="1240" text-anchor="middle" fill="#97C459" font-size="9">All agents retrain from</text>
  <text x="200" y="1254" text-anchor="middle" fill="#97C459" font-size="9">every completed diagnosis</text>

  <rect x="560" y="1204" width="280" height="58" rx="8" fill="#1B3A12" stroke="#97C459" stroke-width="1"/>
  <text x="700" y="1224" text-anchor="middle" fill="#C0DD97" font-size="10" font-weight="600">Agent 9 — DB Logger</text>
  <text x="700" y="1240" text-anchor="middle" fill="#97C459" font-size="9">Logs company + trigger points</text>
  <text x="700" y="1254" text-anchor="middle" fill="#97C459" font-size="9">DB grows forever</text>

  <text x="140" y="1278" fill="#6B7A99" font-size="9">Memory + storage</text>
  <line x1="200" y1="1262" x2="200" y2="1282" stroke="#9CA3AF" stroke-width="1"/>
  <line x1="700" y1="1262" x2="700" y2="1282" stroke="#9CA3AF" stroke-width="1"/>

  <rect x="50" y="1282" width="220" height="50" rx="6" fill="#0D1528" stroke="#4299E1" stroke-width="1"/>
  <text x="160" y="1302" text-anchor="middle" fill="#63B3ED" font-size="10" font-weight="600">Failure DB</text>
  <text x="160" y="1318" text-anchor="middle" fill="#8896B3" font-size="9">1,982 company cases</text>

  <rect x="340" y="1282" width="220" height="50" rx="6" fill="#0D1528" stroke="#4299E1" stroke-width="1"/>
  <text x="450" y="1302" text-anchor="middle" fill="#63B3ED" font-size="10" font-weight="600">Success DB</text>
  <text x="450" y="1318" text-anchor="middle" fill="#8896B3" font-size="9">1,000 scaled benchmarks</text>

  <rect x="630" y="1282" width="220" height="50" rx="6" fill="#0D1528" stroke="#4299E1" stroke-width="1"/>
  <text x="740" y="1302" text-anchor="middle" fill="#63B3ED" font-size="10" font-weight="600">Intervention Library</text>
  <text x="740" y="1318" text-anchor="middle" fill="#8896B3" font-size="9">Outcomes + success rates</text>

  <path d="M60 1307 Q20 1050 130 980" fill="none" stroke="#6B7A99" stroke-width="1" stroke-dasharray="4,3" marker-end="url(#arr)"/>
  <text x="24" y="1160" fill="#6B7A99" font-size="8" transform="rotate(-90, 24, 1160)">Feeds back to Agent 1</text>

  <!-- PART 3 -->
  <line x1="60" y1="1346" x2="840" y2="1346" stroke="rgba(201,168,76,0.15)" stroke-width="1"/>
  <rect x="30" y="1352" width="840" height="24" rx="4" fill="rgba(66,153,225,0.2)"/>
  <text x="450" y="1369" text-anchor="middle" fill="#63B3ED" font-size="10" font-weight="700" letter-spacing="0.14em">PART 3 — TECHNICAL INFRASTRUCTURE (DEPLOYED)</text>

  <rect x="50" y="1384" width="800" height="200" rx="10" fill="none" stroke="rgba(66,153,225,0.3)" stroke-width="1.5" stroke-dasharray="6,4"/>
  <text x="450" y="1401" text-anchor="middle" fill="#4299E1" font-size="9" font-weight="600" letter-spacing="0.1em">GOOGLE CLOUD RUN — SERVERLESS AUTO-SCALING CONTAINER</text>

  <rect x="290" y="1410" width="320" height="62" rx="8" fill="#111A2E" stroke="rgba(201,168,76,0.45)" stroke-width="1.5"/>
  <text x="450" y="1430" text-anchor="middle" fill="#C9A84C" font-size="11" font-weight="700">Flask API  (app.py)</text>
  <text x="450" y="1447" text-anchor="middle" fill="#8896B3" font-size="9">POST /diagnose · GET / · GET /privacy</text>
  <text x="450" y="1462" text-anchor="middle" fill="#8896B3" font-size="9">Consent gate · 5,000 char cap · error handling</text>

  <rect x="80" y="1492" width="240" height="58" rx="8" fill="#111A2E" stroke="rgba(201,168,76,0.3)" stroke-width="1"/>
  <text x="200" y="1512" text-anchor="middle" fill="#E8C96A" font-size="10" font-weight="600">Smart Selector</text>
  <text x="200" y="1528" text-anchor="middle" fill="#8896B3" font-size="9">Sector keyword match</text>
  <text x="200" y="1542" text-anchor="middle" fill="#8896B3" font-size="9">120 failures + 60 successes</text>

  <rect x="580" y="1492" width="240" height="58" rx="8" fill="#111A2E" stroke="rgba(201,168,76,0.3)" stroke-width="1"/>
  <text x="700" y="1512" text-anchor="middle" fill="#E8C96A" font-size="10" font-weight="600">Prompt Builder</text>
  <text x="700" y="1528" text-anchor="middle" fill="#8896B3" font-size="9">Injects DB slices</text>
  <text x="700" y="1542" text-anchor="middle" fill="#8896B3" font-size="9">Structured output schema</text>

  <line x1="360" y1="1472" x2="260" y2="1490" stroke="#C9A84C" stroke-width="1.5" marker-end="url(#arr-gold)"/>
  <line x1="540" y1="1472" x2="640" y2="1490" stroke="#C9A84C" stroke-width="1.5" marker-end="url(#arr-gold)"/>

  <rect x="320" y="1600" width="260" height="58" rx="8" fill="#0D1A2E" stroke="#4299E1" stroke-width="1.5"/>
  <text x="450" y="1622" text-anchor="middle" fill="#63B3ED" font-size="11" font-weight="700">Gemini 2.5 Flash</text>
  <text x="450" y="1638" text-anchor="middle" fill="#8896B3" font-size="9">1M token context · google-genai SDK</text>
  <text x="450" y="1652" text-anchor="middle" fill="#63B3ED" font-size="8">Google AI API (external)</text>

  <line x1="200" y1="1550" x2="380" y2="1598" stroke="#C9A84C" stroke-width="1.5" marker-end="url(#arr-gold)"/>
  <line x1="700" y1="1550" x2="520" y2="1598" stroke="#C9A84C" stroke-width="1.5" marker-end="url(#arr-gold)"/>
  <path d="M450 1600 L450 1472" fill="none" stroke="#4299E1" stroke-width="1.5" stroke-dasharray="5,3" marker-end="url(#arr-blue)"/>
  <text x="458" y="1568" fill="#63B3ED" font-size="8">response</text>

  <rect x="50" y="1668" width="800" height="36" rx="6" fill="rgba(13,21,40,0.8)" stroke="rgba(201,168,76,0.15)" stroke-width="1"/>
  <text x="450" y="1683" text-anchor="middle" fill="#C9A84C" font-size="9" font-weight="600">PRIVACY — ZERO STORAGE MODEL</text>
  <text x="450" y="1697" text-anchor="middle" fill="#6B7A99" font-size="9">No submission data stored by Vee Group · API call only · GDPR / DPDP / UK GDPR / CCPA compliant · Consent required before every call</text>

  <text x="450" y="1715" text-anchor="middle" fill="#4A5568" font-size="8">© 2026 Vee Group · New Delhi &amp; United Kingdom · veegroup.in</text>
</svg>
